<?xml version="1.0" standalone="no"?>
<!DOCTYPE svg PUBLIC "-//W3C//DTD SVG 20010904//EN"
 "http://www.w3.org/TR/2001/REC-SVG-20010904/DTD/svg10.dtd">
<svg version="1.0" xmlns="http://www.w3.org/2000/svg"
 width="507.000000pt" height="507.000000pt" viewBox="0 0 507.000000 507.000000"
 preserveAspectRatio="xMidYMid meet">
<metadata>
Created by potrace 1.14, written by Peter Selinger 2001-2017
</metadata>
<g transform="translate(0.000000,507.000000) scale(0.100000,-0.100000)"
fill="#000000" stroke="none">
<path d="M2340 4751 c0 -9 -10 -12 -34 -9 -19 2 -33 1 -30 -3 2 -4 -8 -6 -23
-5 -16 2 -31 -2 -35 -8 -5 -7 -8 -6 -8 4 0 13 -1 13 -10 0 -5 -8 -10 -10 -10
-3 0 6 -9 9 -20 6 -11 -3 -20 -10 -20 -16 0 -7 -4 -7 -12 1 -9 9 -15 7 -25 -6
-8 -9 -12 -11 -8 -4 7 13 -10 15 -40 3 -12 -5 -26 -4 -34 3 -11 8 -13 8 -7 -1
5 -9 0 -13 -14 -13 -12 0 -19 -4 -16 -8 3 -5 -1 -9 -9 -9 -8 0 -15 4 -15 8 0
5 -10 5 -22 0 -64 -26 -81 -30 -125 -34 -11 -1 -19 -5 -17 -9 2 -4 0 -9 -6
-13 -5 -3 -10 0 -10 7 0 8 -3 9 -8 3 -4 -6 -14 -10 -22 -10 -8 0 -18 -3 -21
-7 -6 -9 -42 -19 -71 -21 -9 -1 -14 -5 -12 -9 5 -7 -18 -12 -38 -9 -5 0 -8 -3
-8 -9 0 -5 -6 -10 -13 -10 -7 0 -24 -8 -37 -17 -13 -10 -34 -17 -45 -18 -11 0
-19 -4 -18 -10 1 -5 -10 -11 -23 -11 -14 -1 -32 -10 -40 -20 -9 -11 -12 -12
-8 -4 7 13 5 13 -9 1 -9 -7 -17 -10 -17 -5 0 4 -7 -1 -15 -12 -8 -10 -15 -15
-15 -11 0 5 -7 1 -16 -7 -8 -9 -22 -16 -30 -16 -8 0 -14 -4 -14 -9 0 -5 -15
-15 -32 -22 -40 -16 -60 -34 -50 -44 4 -5 2 -5 -5 -2 -6 4 -18 1 -26 -7 -8 -8
-17 -12 -21 -9 -3 4 -6 -1 -6 -10 0 -10 -6 -14 -13 -11 -8 3 -20 -2 -27 -10
-7 -9 -16 -13 -21 -10 -5 3 -9 2 -8 -3 3 -17 -1 -33 -8 -31 -15 3 -43 -14 -37
-23 3 -5 -4 -9 -16 -9 -12 0 -18 -4 -15 -10 3 -5 -1 -10 -9 -10 -9 0 -16 -7
-16 -16 0 -8 -5 -12 -10 -9 -6 3 -13 -1 -16 -9 -3 -9 -12 -16 -20 -16 -7 0
-21 -11 -30 -25 -9 -14 -21 -22 -28 -18 -6 3 -8 3 -4 -1 3 -4 -25 -39 -63 -77
-38 -38 -66 -69 -62 -69 3 0 -4 -8 -15 -19 -12 -10 -22 -24 -22 -30 0 -7 -4
-10 -9 -7 -9 6 -26 -22 -22 -38 1 -5 -5 -6 -13 -3 -9 4 -15 3 -15 -1 2 -17
-14 -51 -22 -46 -5 3 -9 -1 -9 -10 0 -8 -4 -16 -9 -18 -5 -1 -11 -9 -13 -17
-2 -8 -14 -26 -28 -39 -14 -13 -18 -20 -10 -16 8 4 4 -4 -10 -19 -14 -14 -25
-32 -25 -39 -1 -7 -6 -12 -13 -11 -6 2 -9 -3 -6 -11 3 -7 -2 -16 -10 -19 -9
-4 -13 -13 -10 -20 3 -8 -2 -17 -11 -21 -9 -3 -13 -10 -10 -16 3 -5 1 -10 -4
-10 -6 0 -11 -7 -11 -16 0 -8 -4 -13 -9 -9 -6 3 -8 -4 -6 -15 2 -11 -1 -20 -6
-20 -6 0 -7 -4 -4 -10 3 -5 2 -10 -2 -10 -5 0 -14 -9 -21 -21 -11 -17 -11 -20
0 -14 7 3 5 0 -6 -9 -10 -8 -15 -20 -10 -27 5 -8 3 -10 -6 -4 -10 6 -12 4 -7
-8 3 -9 0 -18 -9 -21 -8 -3 -14 -14 -14 -24 0 -10 -6 -24 -12 -31 -11 -11 -10
-12 2 -6 9 5 7 -1 -5 -14 -11 -13 -19 -25 -18 -27 1 -2 1 -9 -1 -16 -3 -7 -7
-26 -10 -41 -4 -15 -11 -25 -15 -22 -5 3 -8 -3 -7 -12 2 -10 -2 -21 -8 -25 -7
-5 -6 -8 4 -8 12 0 12 -2 2 -8 -7 -5 -14 -26 -16 -46 -2 -21 -7 -41 -12 -45
-5 -3 -9 -10 -9 -16 -1 -31 -19 -102 -29 -114 -8 -11 -8 -13 1 -7 9 5 11 2 7
-8 -3 -9 -11 -13 -17 -9 -6 4 -7 1 -2 -8 12 -18 14 -49 3 -43 -4 3 -8 -5 -8
-18 -1 -73 -4 -98 -10 -98 -4 0 -6 -12 -4 -26 1 -15 -1 -37 -6 -50 -6 -15 -5
-24 3 -28 8 -3 9 -7 2 -13 -5 -4 -10 -19 -9 -33 0 -14 -3 -30 -8 -37 -5 -6 -5
-14 2 -18 10 -6 7 -45 -6 -66 -4 -7 -3 -10 2 -6 5 3 9 -26 8 -69 -1 -41 3 -74
8 -74 5 0 6 -6 1 -12 -12 -20 -12 -37 -1 -44 6 -4 5 -10 -3 -15 -10 -6 -11 -9
-1 -9 6 0 12 -7 12 -16 0 -8 -4 -13 -10 -9 -5 3 -3 -7 5 -22 9 -18 11 -29 4
-34 -6 -3 -4 -11 6 -19 12 -10 13 -16 4 -26 -6 -8 -8 -14 -3 -14 5 0 10 -16
11 -35 4 -49 7 -59 18 -67 6 -5 5 -8 -3 -8 -12 0 -12 0 19 -61 7 -15 7 -19 0
-14 -6 3 -11 1 -11 -4 0 -6 5 -11 12 -11 6 0 8 -3 5 -7 -4 -3 -2 -12 4 -20 9
-10 8 -13 -2 -13 -11 -1 -11 -3 1 -13 16 -13 21 -28 24 -62 0 -11 7 -24 15
-29 10 -6 10 -10 1 -16 -9 -5 -8 -10 2 -21 7 -8 15 -23 16 -34 2 -11 8 -22 13
-23 5 -2 6 -8 3 -13 -3 -6 1 -21 10 -34 9 -13 16 -31 16 -40 0 -8 5 -15 11
-15 5 0 8 -4 4 -9 -3 -6 3 -14 12 -20 11 -6 13 -11 5 -11 -10 0 -10 -4 2 -15
8 -9 12 -23 9 -32 -4 -11 -3 -14 5 -9 7 4 12 1 12 -8 0 -9 5 -16 11 -16 5 0 8
-4 5 -9 -3 -5 1 -11 9 -15 8 -3 12 -12 9 -19 -3 -8 2 -21 10 -30 9 -9 16 -23
16 -32 0 -9 4 -13 10 -10 6 3 10 -3 10 -15 0 -12 5 -18 10 -15 6 3 10 -1 10
-11 0 -9 8 -23 18 -31 9 -8 11 -11 3 -7 -9 5 -8 -2 5 -19 10 -15 22 -27 27
-27 4 0 7 -7 7 -15 0 -7 8 -19 17 -24 10 -6 14 -11 10 -11 -8 0 3 -15 41 -57
12 -13 20 -29 16 -34 -3 -6 3 -13 15 -16 12 -3 21 -11 21 -17 0 -6 9 -18 20
-26 11 -8 20 -20 20 -28 0 -7 4 -10 10 -7 5 3 10 1 10 -5 0 -7 14 -25 31 -41
17 -16 27 -29 23 -30 -5 0 1 -4 14 -10 13 -5 21 -13 18 -17 -3 -5 6 -14 20
-21 14 -6 23 -15 20 -20 -3 -5 4 -11 15 -14 12 -3 18 -10 14 -16 -3 -6 1 -11
9 -11 9 0 16 -4 16 -10 0 -5 7 -10 16 -10 8 0 12 -4 9 -10 -3 -5 1 -10 9 -10
9 0 16 -4 16 -10 0 -5 7 -10 16 -10 8 0 12 -5 9 -10 -3 -6 -1 -10 5 -10 6 0 8
-5 4 -12 -5 -8 -2 -8 10 1 14 12 17 12 14 1 -2 -7 8 -19 22 -26 14 -7 32 -22
41 -33 9 -11 19 -17 23 -14 3 4 6 1 6 -6 0 -7 4 -10 9 -7 5 3 17 -5 26 -18 10
-13 24 -22 32 -19 8 3 13 -2 14 -13 0 -12 3 -14 6 -6 3 9 13 4 30 -15 14 -15
22 -21 18 -13 -3 8 1 6 9 -4 9 -11 16 -17 16 -13 0 4 9 -1 20 -11 12 -9 22
-15 24 -12 1 3 10 -3 20 -13 10 -9 22 -15 27 -12 5 4 9 2 9 -4 0 -9 26 -22 44
-20 5 0 13 -6 18 -15 5 -8 15 -13 23 -10 8 4 15 1 15 -5 0 -6 3 -10 8 -9 4 2
33 -10 64 -25 32 -16 62 -26 68 -22 6 3 13 -1 16 -10 5 -12 9 -13 21 -4 11 10
13 9 11 -2 -2 -8 3 -13 10 -12 6 2 12 -3 12 -10 0 -8 4 -7 10 3 6 10 10 11 10
3 0 -7 11 -13 25 -13 14 0 25 -5 25 -12 0 -6 3 -8 7 -5 3 4 13 1 21 -6 13 -10
14 -9 7 3 -5 9 1 7 15 -5 13 -11 20 -14 15 -6 -6 11 -2 10 16 -2 28 -20 43
-22 33 -5 -4 7 1 5 12 -4 16 -14 23 -15 34 -5 10 9 11 9 6 0 -6 -12 18 -19 47
-14 4 0 7 -3 7 -8 0 -11 19 -9 39 3 11 7 13 5 8 -8 -4 -10 -3 -15 4 -11 5 4
16 2 24 -5 10 -8 15 -8 21 1 5 8 3 9 -6 4 -9 -5 -11 -4 -6 4 6 9 11 9 21 1 8
-7 19 -9 25 -5 5 3 10 2 10 -3 0 -5 12 -8 28 -7 15 1 44 -2 64 -5 24 -5 39 -3
42 4 3 8 5 8 5 0 1 -7 12 -9 27 -6 16 3 30 -1 35 -9 7 -11 9 -11 9 -1 0 10 5
10 21 1 15 -8 19 -8 15 0 -4 6 -2 11 3 11 6 0 11 -6 11 -12 0 -10 2 -10 8 -1
5 7 13 9 21 3 8 -4 25 -4 38 1 16 6 23 5 23 -4 0 -8 3 -8 9 2 6 9 10 10 16 2
5 -9 10 -9 20 -1 10 8 15 8 20 0 5 -8 11 -7 22 1 12 10 16 10 24 -2 7 -11 9
-11 9 0 0 9 8 12 25 9 14 -3 25 -2 25 1 0 4 17 6 38 5 20 0 43 3 50 9 8 6 12
6 12 -3 0 -9 8 -7 26 5 15 9 24 12 20 7 -3 -6 -2 -13 3 -16 5 -3 12 1 15 9 5
13 10 14 27 4 17 -9 20 -8 14 2 -6 9 -2 11 13 7 12 -4 22 -2 22 3 0 6 6 9 13
8 31 -4 48 2 41 14 -6 9 -5 9 7 0 9 -8 19 -9 25 -4 5 5 25 11 44 13 19 2 41 9
48 16 8 7 17 10 22 7 4 -3 20 2 36 10 15 7 31 12 36 9 4 -3 8 -1 8 4 0 11 47
27 68 23 6 -1 12 4 12 10 0 7 3 9 7 6 3 -4 15 1 26 10 11 10 17 12 13 6 -4 -7
-3 -13 2 -13 6 0 13 8 16 17 6 14 9 15 15 4 7 -11 12 -9 21 9 9 18 14 20 21 9
6 -11 9 -10 15 4 3 9 10 14 15 11 5 -3 9 0 9 7 0 7 8 9 21 6 12 -3 22 0 26 9
3 8 9 11 14 8 5 -3 9 0 9 6 0 7 7 10 15 6 9 -3 15 0 15 9 0 8 3 14 8 13 16 -3
41 15 35 26 -4 6 2 4 12 -4 15 -12 17 -12 10 -1 -6 11 -4 13 8 8 10 -4 16 -2
14 6 -1 7 4 11 11 10 6 -2 12 2 12 8 0 5 5 7 10 4 6 -3 13 1 16 10 4 9 13 14
20 11 8 -3 13 -2 11 2 -1 4 2 8 6 9 5 1 17 12 28 24 10 12 19 18 19 13 0 -5 7
0 15 10 8 11 15 16 15 11 0 -4 12 5 26 21 15 16 23 22 19 14 -3 -8 2 -5 13 7
11 13 25 23 31 23 6 0 15 9 21 20 6 11 15 18 20 15 5 -3 11 4 15 15 3 11 13
20 22 20 9 0 13 6 10 14 -4 10 -1 13 9 9 7 -3 14 0 14 5 0 6 12 17 28 24 15 8
26 21 26 31 -2 15 1 16 14 5 11 -9 14 -9 9 -1 -5 7 1 17 13 23 11 6 18 15 15
21 -4 5 3 9 14 9 12 0 20 4 18 9 -1 4 7 17 18 27 12 11 14 15 5 10 -8 -5 -4 2
10 16 14 14 28 23 33 21 4 -2 7 2 7 10 0 8 7 18 16 21 10 4 14 12 10 22 -4 12
-2 15 9 10 9 -3 15 0 15 9 0 8 5 15 12 15 6 0 9 3 5 6 -3 3 2 14 11 25 10 10
25 28 35 39 10 12 15 25 12 30 -4 6 4 10 17 10 18 0 20 2 8 10 -8 5 -10 10 -4
10 11 0 27 35 25 52 0 4 6 5 14 2 10 -4 15 0 15 14 0 11 7 25 15 32 8 6 13 17
12 23 -1 7 4 11 10 10 7 -2 12 0 11 5 -3 11 33 82 43 82 5 0 5 7 2 17 -4 10
-2 14 4 10 6 -4 13 6 17 24 3 17 10 28 16 24 6 -3 7 0 4 9 -3 9 -1 16 5 16 6
0 8 7 5 15 -4 8 1 17 9 21 9 3 13 12 10 20 -3 8 0 14 7 14 6 0 8 5 5 10 -3 6
-1 10 5 10 6 0 9 4 6 9 -3 5 1 12 10 15 14 5 14 9 3 23 -10 12 -10 14 -1 9 7
-4 12 -1 12 8 0 9 5 16 11 16 8 0 8 4 0 14 -9 11 -8 17 4 29 8 9 16 27 17 41
1 14 9 28 16 31 11 4 12 8 2 20 -9 11 -9 15 -1 15 7 0 10 4 6 9 -3 5 -1 12 5
16 6 4 8 11 4 16 -3 5 1 21 10 34 9 13 13 31 10 39 -4 9 -1 16 6 16 9 0 9 4
-1 17 -10 11 -10 14 -1 9 12 -7 16 4 13 32 -1 6 4 12 11 12 9 0 9 3 -2 10 -11
7 -11 10 -2 10 9 0 10 5 4 17 -7 12 -5 24 7 42 13 21 13 24 1 16 -12 -7 -13
-6 -3 7 7 8 10 18 6 21 -3 4 -1 7 7 7 9 0 10 4 2 13 -6 7 -7 18 -2 26 4 8 6
20 3 28 -3 7 1 21 8 30 10 12 10 15 2 9 -16 -9 -16 -1 -2 26 9 16 8 19 -2 13
-9 -6 -10 -3 -6 8 4 10 10 24 13 32 4 8 1 15 -6 15 -10 0 -10 3 0 15 10 12 10
15 -1 15 -10 0 -10 3 -1 12 8 8 8 17 1 31 -8 14 -8 18 0 13 6 -4 11 -3 11 3 0
5 -5 13 -10 16 -7 4 -6 13 1 27 8 14 8 23 0 31 -7 7 -7 16 1 30 7 15 7 22 -3
28 -11 7 -11 9 1 9 9 0 11 3 4 8 -5 4 -9 25 -9 47 1 22 -2 48 -7 58 -6 11 -5
17 3 17 8 0 8 4 -1 15 -7 8 -9 15 -4 15 5 0 2 5 -6 10 -11 7 -11 10 -2 10 10
0 10 5 2 20 -8 15 -8 20 2 20 10 0 10 2 0 9 -7 4 -14 22 -14 39 -1 18 -4 32
-8 32 -4 0 -6 11 -5 25 2 14 0 25 -4 25 -4 0 -7 16 -6 35 2 24 -3 39 -14 45
-13 8 -14 9 -1 10 12 0 12 2 2 9 -8 4 -13 11 -13 15 1 3 1 7 0 9 0 1 -2 15 -4
32 -2 16 -9 31 -14 33 -5 2 -8 9 -5 17 3 7 1 16 -5 19 -6 4 -8 13 -4 21 3 8 0
15 -7 15 -6 0 -9 3 -6 8 2 4 -4 25 -14 47 -10 22 -16 43 -14 47 3 5 1 8 -3 8
-5 0 -9 9 -10 20 -1 11 -9 27 -17 36 -9 9 -14 20 -11 25 4 5 1 9 -6 9 -7 0 -9
3 -6 7 4 3 -1 12 -11 20 -9 8 -11 11 -4 8 11 -6 11 -3 0 16 -7 13 -17 27 -23
31 -5 4 -6 10 -2 14 9 9 -12 36 -23 29 -5 -3 -6 5 -3 17 4 19 3 20 -7 8 -10
-12 -11 -11 -7 8 3 14 0 22 -8 22 -8 0 -12 8 -10 20 2 11 1 19 -3 17 -4 -1 -9
3 -11 8 -3 6 -12 17 -21 25 -9 8 -10 11 -3 6 10 -6 12 -5 7 7 -3 8 -12 18 -20
21 -8 3 -14 12 -14 21 0 8 -5 15 -12 15 -6 0 -9 3 -5 6 3 3 -3 15 -13 27 -11
11 -17 25 -13 30 3 6 1 7 -5 3 -7 -4 -12 -3 -12 2 0 5 -9 19 -20 32 -11 12
-17 27 -14 32 3 4 0 7 -8 6 -7 -2 -12 3 -10 10 1 6 -5 12 -14 12 -8 0 -12 5
-9 10 3 6 1 10 -5 10 -6 0 -8 5 -5 10 5 9 -7 14 -27 11 -4 0 -5 9 -3 21 3 11
2 18 -1 15 -9 -8 -64 51 -64 68 0 9 -4 14 -8 11 -11 -7 -42 30 -34 40 4 4 2 4
-5 0 -6 -3 -18 3 -26 14 -7 11 -17 17 -20 13 -4 -3 -7 -1 -7 6 0 6 -12 24 -27
39 -15 15 -20 18 -13 7 7 -11 -5 -1 -27 23 -22 23 -46 42 -54 42 -7 0 -9 3 -6
7 4 3 -10 18 -31 31 -20 14 -44 33 -52 42 -8 8 -27 21 -42 28 -16 6 -28 16
-28 22 0 5 -7 10 -15 10 -8 0 -15 5 -15 11 0 5 -5 7 -10 4 -6 -3 -13 1 -16 10
-4 9 -13 14 -21 11 -8 -3 -11 -1 -8 4 3 5 -6 12 -20 16 -13 3 -23 9 -20 13 2
4 -2 8 -10 9 -8 1 -21 3 -29 4 -8 1 -15 4 -14 7 0 3 0 13 -1 21 -1 13 -2 13
-11 0 -5 -8 -10 -10 -10 -4 0 11 -36 28 -53 25 -4 -1 -10 6 -13 14 -4 8 -14
15 -24 15 -11 0 -22 5 -25 10 -3 6 -15 10 -26 10 -11 0 -17 4 -14 10 3 6 -1 7
-9 4 -10 -4 -16 -1 -16 7 0 7 -3 9 -7 6 -3 -4 -12 -2 -20 4 -7 6 -13 8 -13 4
0 -5 -10 0 -22 11 -12 10 -18 13 -13 5 6 -11 3 -11 -14 2 -13 8 -30 13 -39 10
-11 -5 -13 -3 -7 7 6 10 4 12 -8 7 -10 -3 -17 -2 -17 4 0 6 -4 7 -10 4 -5 -3
-10 -2 -10 4 0 5 -9 8 -20 6 -11 -2 -20 1 -20 7 0 5 -7 8 -15 5 -8 -4 -17 -1
-21 4 -3 6 -15 9 -25 6 -10 -3 -24 2 -30 10 -10 11 -14 11 -20 1 -7 -10 -9
-10 -9 0 0 6 -7 12 -15 12 -9 0 -29 7 -45 15 -18 9 -31 11 -35 5 -4 -6 -16 -5
-34 5 -21 10 -31 11 -40 2 -6 -6 -11 -7 -11 -1 0 5 -11 11 -25 12 -38 3 -49 6
-57 17 -5 6 -8 5 -8 -3 0 -8 -5 -10 -12 -6 -18 12 -59 14 -53 3 3 -5 -1 -6 -9
-3 -9 3 -13 11 -9 18 4 6 0 6 -9 -2 -13 -10 -17 -10 -21 0 -4 11 -6 11 -6 0
-1 -9 -7 -10 -18 -4 -10 4 -37 7 -60 6 -27 -1 -43 3 -43 10 0 7 -4 6 -9 -2 -4
-8 -12 -14 -16 -14 -4 0 -12 6 -16 14 -5 7 -9 8 -9 3 0 -14 -38 -17 -46 -4 -4
6 -14 3 -27 -8 -12 -10 -17 -12 -12 -4 6 11 4 13 -10 7 -11 -4 -22 -2 -27 6
-6 10 -8 10 -8 -1z"/>
</g>
</svg>
